<svg width="1024" height="1024" viewBox="0 0 1024 1024" xmlns="http://www.w3.org/2000/svg">
  <defs>
    <linearGradient id="zg" x1="320" y1="240" x2="700" y2="790" gradientUnits="userSpaceOnUse">
      <stop offset="0" stop-color="#a855f7"/>
      <stop offset="0.5" stop-color="#6d4bff"/>
      <stop offset="1" stop-color="#2f7bff"/>
    </linearGradient>
  </defs>
  <rect width="1024" height="1024" fill="#000000"/>
  <!-- Stylized Z monogram (ribbon look) -->
  <path fill="url(#zg)" d="
    M312 248
    h360
    a40 40 0 0 1 34 61
    L470 690
    h214
    a28 28 0 0 1 28 28
    v48
    a28 28 0 0 1 -28 28
    h-372
    a40 40 0 0 1 -34 -61
    L548 334
    h-236
    a28 28 0 0 1 -28 -28
    v-30
    a28 28 0 0 1 28 -28
    z"/>
</svg>
